<?xml version="1.0" standalone="no"?>
<!DOCTYPE svg PUBLIC "-//W3C//DTD SVG 20010904//EN"
 "http://www.w3.org/TR/2001/REC-SVG-20010904/DTD/svg10.dtd">
<svg version="1.0" xmlns="http://www.w3.org/2000/svg"
 width="512.000000pt" height="512.000000pt" viewBox="0 0 512.000000 512.000000"
 preserveAspectRatio="xMidYMid meet">
<metadata>
Created by potrace 1.11, written by Peter Selinger 2001-2013
</metadata>
<g transform="translate(0.000000,512.000000) scale(0.100000,-0.100000)"
fill="#000000" stroke="none">
<path d="M902 4670 c-175 -46 -324 -168 -407 -332 -69 -139 -66 -37 -63 -1808
l3 -1595 22 -65 c67 -194 227 -352 418 -413 l70 -22 1615 0 1615 0 70 22 c194
62 356 224 418 418 l22 70 0 1615 0 1615 -22 70 c-61 191 -219 351 -413 418
l-65 22 -1605 2 c-1554 2 -1607 1 -1678 -17z m3199 -411 c74 -16 142 -84 158
-158 16 -74 16 -3008 0 -3082 -16 -74 -84 -142 -158 -158 -74 -16 -3008 -16
-3082 0 -74 16 -142 84 -158 158 -16 74 -16 3008 0 3082 15 69 85 143 150 157
66 15 3022 15 3090 1z"/>
<path d="M1710 3415 l0 -215 546 -2 546 -3 -546 -635 -546 -635 0 -217 0 -218
850 0 850 0 0 215 0 215 -546 2 -546 3 546 635 546 635 0 218 0 217 -850 0
-850 0 0 -215z"/>
</g>
</svg>
